<?xml version="1.0"?>
<svg width="100" height="40" xmlns="http://www.w3.org/2000/svg">

 <g>
  <title>background</title>
  <rect fill="none" id="canvas_background" height="402" width="582" y="-1" x="-1"/>
 </g>
 <g>
  <title>Layer 1</title>
  <g id="svg_1">
   <path id="svg_2" d="m24.6,24.1l0,-1.700001l16.4,0l0,-1.9l2.799999,0l0,1.799999l4.799999,0l0,1.700001l-4.799999,0l0,4.5c0,2.200001 -1.099998,3.200001 -3.200001,3.200001l-3.599998,0l0,-1.700001l2.599998,0c1,0.1 1.5,-0.4 1.400002,-1.4l0,-4.5l-16.4,0zm3,-8.700001l0,-1.7l15.9,0l0,-2.4l-16.6,0l0,-1.7l19.300001,0l0,6.5c0.099998,2.4 -1.200001,3.5 -3.700001,3.5l-16,0l0,-1.6l15.099998,0c1.200001,0 1.800003,-0.5 1.700001,-1.6l0,-0.9l-15.699999,0l0,-0.1zm3.699999,14.300001c-0.5,-1.200001 -1.299999,-2.700001 -2.4,-4.300001l2.5,0c1.1,1.4 1.9,2.9 2.6,4.300001l-2.700001,0z" fill="#FFFFFF"/>
   <path id="svg_3" d="m52,28.9l0,-18.299999l6.900002,0l0,15.1c0.099998,2.199999 -0.900002,3.199999 -3,3.199999c0,0 -3.900002,0 -3.900002,0zm2.200001,-1.699999l1.099998,0c0.900002,0 1.299999,-0.400002 1.299999,-1.300001l0,-13.599999l-2.5,0l0,14.900001l0.100002,0zm6.299999,-14.1l0,-1.700001l4.900002,0l0,-2.9l2.699997,0l0,2.9l5.099998,0l0,1.700001l-5.099998,0l0,4.6l6.099998,0l0,1.699999l-5.400002,0c1.100006,3.200001 3.100006,6.200001 5.900002,9.1l0,1.700001c-3,-2 -5.199997,-4.400002 -6.699997,-7.200001l0,9l-2.699997,0l0,-9c-1.400002,2.799999 -3.600002,5.200001 -6.400002,7.200001l0,-1.700001c2.599998,-2.700001 4.5,-5.700001 5.599998,-9.1l-4.799999,0l0,-1.699999l5.600002,0l0,-4.6c0,0 -4.800003,0 -4.800003,0z" fill="#FFFFFF"/>
  </g>
 </g>
</svg>